<svg width="800" height="450" xmlns="http://www.w3.org/2000/svg" style="background:#0f0f1a;font-family:sans-serif;">
<text x="400.0" y="35" fill="white" text-anchor="middle" font-size="20" font-weight="bold">Reward over Training Steps</text>
<line x1="60" y1="390.0" x2="740" y2="390.0" stroke="#222" stroke-width="1" />
<text x="50" y="395.0" fill="#888" text-anchor="end" font-size="12">0.36</text>
<line x1="60" y1="324.0" x2="740" y2="324.0" stroke="#222" stroke-width="1" />
<text x="50" y="329.0" fill="#888" text-anchor="end" font-size="12">0.49</text>
<line x1="60" y1="258.0" x2="740" y2="258.0" stroke="#222" stroke-width="1" />
<text x="50" y="263.0" fill="#888" text-anchor="end" font-size="12">0.62</text>
<line x1="60" y1="192.0" x2="740" y2="192.0" stroke="#222" stroke-width="1" />
<text x="50" y="197.0" fill="#888" text-anchor="end" font-size="12">0.74</text>
<line x1="60" y1="126.0" x2="740" y2="126.0" stroke="#222" stroke-width="1" />
<text x="50" y="131.0" fill="#888" text-anchor="end" font-size="12">0.87</text>
<line x1="60" y1="60.0" x2="740" y2="60.0" stroke="#222" stroke-width="1" />
<text x="50" y="65.0" fill="#888" text-anchor="end" font-size="12">1.00</text>
<text x="60.0" y="410" fill="#888" text-anchor="middle" font-size="12">100</text>
<text x="230.0" y="410" fill="#888" text-anchor="middle" font-size="12">666</text>
<text x="400.0" y="410" fill="#888" text-anchor="middle" font-size="12">1232</text>
<text x="570.0" y="410" fill="#888" text-anchor="middle" font-size="12">1798</text>
<text x="740.0" y="410" fill="#888" text-anchor="middle" font-size="12">2365</text>
<line x1="60" y1="390" x2="740" y2="390" stroke="#666" stroke-width="2" />
<line x1="60" y1="60" x2="60" y2="390" stroke="#666" stroke-width="2" />
<rect x="650" y="50" width="130" height="50" fill="#16213e" rx="5" />
<line x1="660" y1="65" x2="680" y2="65" stroke="#4ecdc4" stroke-width="1" opacity="0.4" />
<text x="685" y="70" fill="#ccc" font-size="11">Raw Log</text>
<line x1="660" y1="85" x2="680" y2="85" stroke="#4ecdc4" stroke-width="3" />
<text x="685" y="90" fill="#ccc" font-size="11">Smooth Trend</text>
<polyline points="60.0,369.2053094294087 90.02207505518764,357.15566281675575 120.04415011037528,343.8131356662645 150.0662251655629,327.2125495604206 180.08830022075057,313.3011549732805 210.1103752759382,300.7343561454922 240.13245033112585,288.11584209619036 270.1545253863135,276.58334769867264 300.17660044150114,265.15428374418207 330.19867549668874,255.94897431477335 360.2207505518764,246.79538010687813 390.242825607064,238.6760903292536 420.2649006622517,230.0396483364937 450.2869757174393,222.64437166005862 480.30905077262696,214.57679710394763 510.3311258278146,207.6469574211343 540.3532008830023,200.19996552318565 570.3752759381898,193.83899327702122 600.3973509933775,188.09860368901914 630.4194260485651,183.5476641958283 660.4415011037528,179.5138769177728 690.4635761589403,177.18669194966387 720.485651214128,175.48008963971733 740.0,174.0320634373384" fill="none" stroke="#4ecdc4" stroke-width="1" opacity="0.3" />
<polyline points="60.0,369.2053094294087 90.02207505518764,363.18048612308223 120.04415011037528,356.72487502154803 150.0662251655629,349.3466643682124 180.08830022075057,342.137562489226 210.1103752759382,335.2372004826754 240.13245033112585,328.50543009825896 270.1545253863135,322.01516979831064 300.17660044150114,315.69712118600245 330.19867549668874,309.72246164454407 360.2207505518764,297.481468712291 390.242825607064,285.6335114635408 420.2649006622517,274.2561627305637 450.2869757174393,263.7993449405275 480.30905077262696,253.92690915359424 510.3311258278146,244.61816928115846 540.3532008830023,235.82658162385798 570.3752759381898,227.55214618169282 600.3973509933775,219.8465781761765 630.4194260485651,212.606447164282 660.4415011037528,205.8782968453715 690.4635761589403,199.72935700741255 720.485651214128,194.27340113773488 740.0,189.41217031546287" fill="none" stroke="#4ecdc4" stroke-width="3" stroke-linecap="round" />
</svg>