<svg width="800" height="450" xmlns="http://www.w3.org/2000/svg" style="background:#0f0f1a;font-family:sans-serif;">
<text x="400.0" y="35" fill="white" text-anchor="middle" font-size="20" font-weight="bold">Loss Convergence Analysis</text>
<line x1="60" y1="390.0" x2="740" y2="390.0" stroke="#222" stroke-width="1" />
<text x="50" y="395.0" fill="#888" text-anchor="end" font-size="12">0.21</text>
<line x1="60" y1="324.0" x2="740" y2="324.0" stroke="#222" stroke-width="1" />
<text x="50" y="329.0" fill="#888" text-anchor="end" font-size="12">0.37</text>
<line x1="60" y1="258.0" x2="740" y2="258.0" stroke="#222" stroke-width="1" />
<text x="50" y="263.0" fill="#888" text-anchor="end" font-size="12">0.53</text>
<line x1="60" y1="192.0" x2="740" y2="192.0" stroke="#222" stroke-width="1" />
<text x="50" y="197.0" fill="#888" text-anchor="end" font-size="12">0.69</text>
<line x1="60" y1="126.0" x2="740" y2="126.0" stroke="#222" stroke-width="1" />
<text x="50" y="131.0" fill="#888" text-anchor="end" font-size="12">0.84</text>
<line x1="60" y1="60.0" x2="740" y2="60.0" stroke="#222" stroke-width="1" />
<text x="50" y="65.0" fill="#888" text-anchor="end" font-size="12">1.00</text>
<text x="60.0" y="410" fill="#888" text-anchor="middle" font-size="12">100</text>
<text x="230.0" y="410" fill="#888" text-anchor="middle" font-size="12">666</text>
<text x="400.0" y="410" fill="#888" text-anchor="middle" font-size="12">1232</text>
<text x="570.0" y="410" fill="#888" text-anchor="middle" font-size="12">1798</text>
<text x="740.0" y="410" fill="#888" text-anchor="middle" font-size="12">2365</text>
<line x1="60" y1="390" x2="740" y2="390" stroke="#666" stroke-width="2" />
<line x1="60" y1="60" x2="60" y2="390" stroke="#666" stroke-width="2" />
<rect x="650" y="50" width="130" height="50" fill="#16213e" rx="5" />
<line x1="660" y1="65" x2="680" y2="65" stroke="#ff6b6b" stroke-width="1" opacity="0.4" />
<text x="685" y="70" fill="#ccc" font-size="11">Raw Log</text>
<line x1="660" y1="85" x2="680" y2="85" stroke="#ff6b6b" stroke-width="3" />
<text x="685" y="90" fill="#ccc" font-size="11">Smooth Trend</text>
<polyline points="60.0,373.6389405922085 90.02207505518764,354.6326789589616 120.04415011037528,363.62869673090523 150.0662251655629,373.7256946420008 180.08830022075057,357.3400758751859 210.1103752759382,371.13732260568474 240.13245033112585,359.51856645886 270.1545253863135,372.7554742300721 300.17660044150114,371.17462265607855 330.19867549668874,376.4628477782022 360.2207505518764,365.64248035048075 390.242825607064,370.2739731246596 420.2649006622517,369.94623560322196 450.2869757174393,368.21031640399576 480.30905077262696,369.70944314847475 510.3311258278146,373.0077734473426 540.3532008830023,375.93897066592973 570.3752759381898,367.4295299558648 600.3973509933775,380.09981224244297 630.4194260485651,372.80828104298917 660.4415011037528,365.8402963480749 690.4635761589403,376.48841298128116 720.485651214128,372.09371266184945 740.0,366.4601477473157" fill="none" stroke="#ff6b6b" stroke-width="1" opacity="0.3" />
<polyline points="60.0,373.6389405922085 90.02207505518764,364.135809775585 120.04415011037528,363.9669117945883 150.0662251655629,366.40650273101903 180.08830022075057,364.59304971917646 210.1103752759382,365.68397141777274 240.13245033112585,364.8030196657753 270.1545253863135,365.7971288740236 300.17660044150114,366.3947678837041 330.19867549668874,367.401450142647 360.2207505518764,366.6018041184742 390.242825607064,368.16589162487503 420.2649006622517,368.7978969731206 450.2869757174393,368.2463591493201 480.30905077262696,369.483128235973 510.3311258278146,369.6700475896319 540.3532008830023,371.31208801033887 570.3752759381898,370.77982886427 600.3973509933775,371.67209636189256 630.4194260485651,371.3066396883712 660.4415011037528,371.32633746779265 690.4635761589403,371.9478652737928 720.485651214128,372.16244533897964 740.0,371.9876799343255" fill="none" stroke="#ff6b6b" stroke-width="3" stroke-linecap="round" />
</svg>